<svg xmlns="http://www.w3.org/2000/svg" width="23" height="22" viewBox="0 0 23 22" fill="none"><path d="M6.23834 6.58398L7.37555 10.3738M12.3766 15.3766L16.1682 16.5138" stroke="#D1D5DB" stroke-width="1.78385" stroke-linecap="round" stroke-linejoin="round"/><path d="M11.369 11.3845L16.5056 6.24792" stroke="#D1D5DB" stroke-width="1.78385" stroke-linecap="round" stroke-linejoin="round"/><path d="M4.51569 5.30371C4.51569 5.47941 4.55029 5.65338 4.61753 5.8157C4.68476 5.97802 4.78331 6.12551 4.90754 6.24974C5.03178 6.37398 5.17927 6.47253 5.34159 6.53976C5.50391 6.607 5.67788 6.6416 5.85358 6.6416C6.02927 6.6416 6.20324 6.607 6.36557 6.53976C6.52789 6.47253 6.67537 6.37398 6.79961 6.24974C6.92384 6.12551 7.02239 5.97802 7.08963 5.8157C7.15686 5.65338 7.19147 5.47941 7.19147 5.30371C7.19147 5.12802 7.15686 4.95404 7.08963 4.79172C7.02239 4.6294 6.92384 4.48191 6.79961 4.35768C6.67537 4.23344 6.52789 4.1349 6.36557 4.06766C6.20324 4.00043 6.02927 3.96582 5.85358 3.96582C5.67788 3.96582 5.50391 4.00043 5.34159 4.06766C5.17927 4.1349 5.03178 4.23344 4.90754 4.35768C4.78331 4.48191 4.68476 4.6294 4.61753 4.79172C4.55029 4.95404 4.51569 5.12802 4.51569 5.30371Z" stroke="#D1D5DB" stroke-width="1.78385" stroke-linecap="round" stroke-linejoin="round"/><path d="M16.1114 5.30371C16.1114 5.65854 16.2523 5.99884 16.5032 6.24974C16.7542 6.50065 17.0944 6.6416 17.4493 6.6416C17.8041 6.6416 18.1444 6.50065 18.3953 6.24974C18.6462 5.99884 18.7872 5.65854 18.7872 5.30371C18.7872 4.94888 18.6462 4.60858 18.3953 4.35768C18.1444 4.10678 17.8041 3.96582 17.4493 3.96582C17.0944 3.96582 16.7542 4.10678 16.5032 4.35768C16.2523 4.60858 16.1114 4.94888 16.1114 5.30371Z" stroke="#D1D5DB" stroke-width="1.78385" stroke-linecap="round" stroke-linejoin="round"/><path d="M16.1114 16.8984C16.1114 17.2533 16.2523 17.5936 16.5032 17.8445C16.7542 18.0954 17.0944 18.2363 17.4493 18.2363C17.8041 18.2363 18.1444 18.0954 18.3953 17.8445C18.6462 17.5936 18.7872 17.2533 18.7872 16.8984C18.7872 16.5436 18.6462 16.2033 18.3953 15.9524C18.1444 15.7015 17.8041 15.5605 17.4493 15.5605C17.0944 15.5605 16.7542 15.7015 16.5032 15.9524C16.2523 16.2033 16.1114 16.5436 16.1114 16.8984Z" stroke="#D1D5DB" stroke-width="1.78385" stroke-linecap="round" stroke-linejoin="round"/><path d="M4.51569 14.2227C4.51569 15.2871 4.93855 16.308 5.69126 17.0608C6.44397 17.8135 7.46487 18.2363 8.52936 18.2363C9.59385 18.2363 10.6147 17.8135 11.3675 17.0608C12.1202 16.308 12.543 15.2871 12.543 14.2227C12.543 13.1582 12.1202 12.1373 11.3675 11.3846C10.6147 10.6319 9.59385 10.209 8.52936 10.209C7.46487 10.209 6.44397 10.6319 5.69126 11.3846C4.93855 12.1373 4.51569 13.1582 4.51569 14.2227Z" stroke="#D1D5DB" stroke-width="1.78385" stroke-linecap="round" stroke-linejoin="round"/></svg>