<svg xmlns="http://www.w3.org/2000/svg" width="23" height="22" viewBox="0 0 23 22" fill="none"><g clip-path="url(#clip0_7_2410)"><path d="M10.642 11.1009C10.642 11.3375 10.7359 11.5643 10.9032 11.7316C11.0705 11.8989 11.2973 11.9928 11.5339 11.9928C11.7704 11.9928 11.9973 11.8989 12.1646 11.7316C12.3319 11.5643 12.4258 11.3375 12.4258 11.1009C12.4258 10.8644 12.3319 10.6375 12.1646 10.4702C11.9973 10.303 11.7704 10.209 11.5339 10.209C11.2973 10.209 11.0705 10.303 10.9032 10.4702C10.7359 10.6375 10.642 10.8644 10.642 11.1009Z" stroke="#D1D5DB" stroke-width="1.78385" stroke-linecap="round" stroke-linejoin="round"/><path d="M11.5313 6.6416C10.6493 6.6416 9.78704 6.90315 9.05365 7.39319C8.32027 7.88322 7.74867 8.57972 7.41113 9.39461C7.07359 10.2095 6.98527 11.1062 7.15735 11.9713C7.32942 12.8364 7.75416 13.631 8.37785 14.2547C9.00155 14.8784 9.79618 15.3031 10.6613 15.4752C11.5263 15.6473 12.423 15.5589 13.2379 15.2214C14.0528 14.8839 14.7493 14.3123 15.2393 13.5789C15.7294 12.8455 15.9909 11.9833 15.9909 11.1012" stroke="#D1D5DB" stroke-width="1.78385" stroke-linecap="round" stroke-linejoin="round"/><path d="M12.4236 3.12232C10.7701 2.93681 9.09972 3.26974 7.64363 4.07505C6.18755 4.88036 5.0177 6.11826 4.29591 7.6175C3.57412 9.11675 3.33607 10.8032 3.61468 12.4437C3.89328 14.0842 4.67478 15.5975 5.85108 16.7744C7.02737 17.9513 8.54031 18.7335 10.1806 19.013C11.8209 19.2924 13.5076 19.0552 15.0072 18.3342C16.5068 17.6131 17.7453 16.4439 18.5513 14.9882C19.3574 13.5325 19.6911 11.8623 19.5064 10.2087" stroke="#D1D5DB" stroke-width="1.78385" stroke-linecap="round" stroke-linejoin="round"/><path d="M14.2084 5.75V8.42578H16.8842L19.5599 5.75H16.8842V3.07422L14.2084 5.75Z" stroke="#D1D5DB" stroke-width="1.78385" stroke-linecap="round" stroke-linejoin="round"/><path d="M14.2084 8.42578L11.5326 11.1016" stroke="#D1D5DB" stroke-width="1.78385" stroke-linecap="round" stroke-linejoin="round"/></g><defs><clipPath id="clip0_7_2410"><rect width="21.4062" height="21.4062" fill="white" transform="translate(0.829468 0.397461)"/></clipPath></defs></svg>