<svg xmlns="http://www.w3.org/2000/svg" width="22" height="22" viewBox="0 0 22 22" fill="none"><g clip-path="url(#clip0_7_2435)"><path d="M3.63485 6.64095H6.31063C6.54718 6.64095 6.77405 6.54698 6.94132 6.37971C7.10858 6.21244 7.20256 5.98558 7.20256 5.74902V4.8571C7.20256 4.38399 7.3905 3.93026 7.72503 3.59572C8.05957 3.26118 8.5133 3.07324 8.98641 3.07324C9.45952 3.07324 9.91325 3.26118 10.2478 3.59572C10.5823 3.93026 10.7703 4.38399 10.7703 4.8571V5.74902C10.7703 5.98558 10.8642 6.21244 11.0315 6.37971C11.1988 6.54698 11.4256 6.64095 11.6622 6.64095H14.338C14.5745 6.64095 14.8014 6.73492 14.9687 6.90219C15.1359 7.06946 15.2299 7.29632 15.2299 7.53288V10.2087C15.2299 10.4452 15.3239 10.6721 15.4911 10.8393C15.6584 11.0066 15.8853 11.1006 16.1218 11.1006H17.0138C17.4869 11.1006 17.9406 11.2885 18.2751 11.6231C18.6097 11.9576 18.7976 12.4113 18.7976 12.8844C18.7976 13.3575 18.6097 13.8113 18.2751 14.1458C17.9406 14.4804 17.4869 14.6683 17.0138 14.6683H16.1218C15.8853 14.6683 15.6584 14.7623 15.4911 14.9295C15.3239 15.0968 15.2299 15.3237 15.2299 15.5602V18.236C15.2299 18.4726 15.1359 18.6994 14.9687 18.8667C14.8014 19.034 14.5745 19.1279 14.338 19.1279H11.6622C11.4256 19.1279 11.1988 19.034 11.0315 18.8667C10.8642 18.6994 10.7703 18.4726 10.7703 18.236V17.3441C10.7703 16.871 10.5823 16.4172 10.2478 16.0827C9.91325 15.7482 9.45952 15.5602 8.98641 15.5602C8.5133 15.5602 8.05957 15.7482 7.72503 16.0827C7.3905 16.4172 7.20256 16.871 7.20256 17.3441V18.236C7.20256 18.4726 7.10858 18.6994 6.94132 18.8667C6.77405 19.034 6.54718 19.1279 6.31063 19.1279H3.63485C3.39829 19.1279 3.17143 19.034 3.00416 18.8667C2.83689 18.6994 2.74292 18.4726 2.74292 18.236V15.5602C2.74292 15.3237 2.83689 15.0968 3.00416 14.9295C3.17143 14.7623 3.39829 14.6683 3.63485 14.6683H4.52677C4.99988 14.6683 5.45361 14.4804 5.78815 14.1458C6.12269 13.8113 6.31063 13.3575 6.31063 12.8844C6.31063 12.4113 6.12269 11.9576 5.78815 11.6231C5.45361 11.2885 4.99988 11.1006 4.52677 11.1006H3.63485C3.39829 11.1006 3.17143 11.0066 3.00416 10.8393C2.83689 10.6721 2.74292 10.4452 2.74292 10.2087V7.53288C2.74292 7.29632 2.83689 7.06946 3.00416 6.90219C3.17143 6.73492 3.39829 6.64095 3.63485 6.64095Z" stroke="#D1D5DB" stroke-width="1.78385" stroke-linecap="round" stroke-linejoin="round"/></g><defs><clipPath id="clip0_7_2435"><rect width="21.4062" height="21.4062" fill="white" transform="translate(0.0671387 0.397461)"/></clipPath></defs></svg>